# Blender v2.76 (sub 0) OBJ File: 'Colline.blend'
# www.blender.org
mtllib Colline.mtl
o Cube_Cube.002
v -1.000000 0.000000 1.000000
v -1.000000 0.000000 1.000000
v -1.000000 0.000000 -1.000000
v -1.000000 0.000000 -1.000000
v 1.000000 0.000000 1.000000
v 1.000000 0.000000 1.000000
v 1.000000 0.000000 -1.000000
v 1.000000 0.000000 -1.000000
v -1.000000 0.000000 0.666667
v -1.000000 0.000000 0.333333
v -1.000000 0.000000 -0.000000
v -1.000000 0.000000 -0.333333
v -1.000000 0.000000 -0.666667
v -0.666667 0.000000 -1.000000
v -0.333333 0.000000 -1.000000
v 0.000000 0.000000 -1.000000
v 0.333333 0.000000 -1.000000
v 0.666667 0.000000 -1.000000
v 1.000000 0.000000 -0.666667
v 1.000000 0.000000 -0.333333
v 1.000000 0.000000 0.000000
v 1.000000 0.000000 0.333333
v 1.000000 0.000000 0.666667
v 0.666667 0.000000 1.000000
v 0.333333 0.000000 1.000000
v -0.000000 0.000000 1.000000
v -0.333333 0.000000 1.000000
v -0.666667 0.000000 1.000000
v 0.666667 0.500000 0.666667
v 0.333333 1.000000 0.666667
v -0.000000 1.000000 0.666667
v -0.333333 1.000000 0.666667
v -0.666667 0.500000 0.666667
v 0.666667 1.000000 0.333333
v 0.333333 1.500000 0.333333
v -0.000000 2.000000 0.333333
v -0.333333 1.500000 0.333333
v -0.666667 1.000000 0.333333
v 0.666667 1.000000 0.000000
v 0.333333 2.000000 0.000000
v -0.000000 2.000000 -0.000000
v -0.333333 2.000000 -0.000000
v -0.666667 1.000000 -0.000000
v 0.666667 1.000000 -0.333333
v 0.333333 1.500000 -0.333333
v -0.000000 2.000000 -0.333333
v -0.333333 1.500000 -0.333333
v -0.666667 1.000000 -0.333333
v 0.666667 0.500000 -0.666667
v 0.333333 1.000000 -0.666667
v -0.000000 1.000000 -0.666667
v -0.333333 1.000000 -0.666667
v -0.666667 0.500000 -0.666667
vt 0.500000 1.000000
vt 0.821394 0.883022
vt 0.992404 0.586824
vt 0.933013 0.250000
vt 0.671010 0.030154
vt 0.328990 0.030154
vt 0.066987 0.250000
vt 0.007596 0.586824
vt 0.178606 0.883022
vt 0.000000 0.000000
vt 1.000000 0.000000
vt 1.000000 1.000000
vt 0.000000 1.000000
vn 0.000000 0.000000 1.000000
vn 0.000000 -1.000000 0.000000
vn -0.514500 0.686000 -0.514500
vn -0.514500 0.686000 0.514500
vn -0.874200 0.388500 0.291400
vn -0.948700 0.316200 0.000000
vn -0.874200 0.388500 -0.291400
vn 0.514500 0.686000 0.514500
vn 0.291400 0.388500 0.874200
vn 0.000000 0.316200 0.948700
vn -0.291400 0.388500 0.874200
vn 0.874200 0.388500 0.291400
vn 0.639600 0.426400 0.639600
vn -0.639600 0.426400 0.639600
vn 0.948700 0.316200 0.000000
vn 0.874200 0.388500 -0.291400
vn 0.514500 0.686000 -0.514500
vn 0.639600 0.426400 -0.639600
vn 0.291400 0.388500 -0.874200
vn -0.291400 0.388500 -0.874200
vn -0.639600 0.426400 -0.639600
vn 0.000000 0.316200 -0.948700
usemtl Material
s off
f 2/1/1 9/2/1 10/3/1 11/4/1 12/5/1 13/6/1 4/7/1 3/8/1 1/9/1
f 4/1/1 14/2/1 15/3/1 16/4/1 17/5/1 18/6/1 8/7/1 7/8/1 3/9/1
f 8/1/1 19/2/1 20/3/1 21/4/1 22/5/1 23/6/1 6/7/1 5/8/1 7/9/1
f 6/1/1 24/2/1 25/3/1 26/4/1 27/5/1 28/6/1 2/7/1 1/8/1 5/9/1
f 1/10/2 3/11/2 7/12/2 5/13/2
f 53/10/3 14/11/3 4/12/3 13/13/3
f 28/10/4 33/11/4 9/12/4 2/13/4
f 33/10/5 38/11/5 10/12/5 9/13/5
f 38/10/6 43/11/6 11/12/6 10/13/6
f 43/10/6 48/11/6 12/12/6 11/13/6
f 48/10/7 53/11/7 13/12/7 12/13/7
f 6/10/8 23/11/8 29/12/8 24/13/8
f 24/10/9 29/11/9 30/12/9 25/13/9
f 25/10/10 30/11/10 31/12/10 26/13/10
f 26/10/10 31/11/10 32/12/10 27/13/10
f 27/10/11 32/11/11 33/12/11 28/13/11
f 23/10/12 22/11/12 34/12/12 29/13/12
f 29/10/13 34/11/13 35/12/13 30/13/13
f 30/10/9 35/11/9 36/12/9 31/13/9
f 31/10/11 36/11/11 37/12/11 32/13/11
f 32/10/14 37/11/14 38/12/14 33/13/14
f 22/10/15 21/11/15 39/12/15 34/13/15
f 34/10/12 39/11/12 40/12/12 35/13/12
f 35/10/8 40/11/8 41/12/8 36/13/8
f 36/10/4 41/11/4 42/12/4 37/13/4
f 37/10/5 42/11/5 43/12/5 38/13/5
f 21/10/15 20/11/15 44/12/15 39/13/15
f 39/10/16 44/11/16 45/12/16 40/13/16
f 40/10/17 45/11/17 46/12/17 41/13/17
f 41/10/3 46/11/3 47/12/3 42/13/3
f 42/10/7 47/11/7 48/12/7 43/13/7
f 20/10/16 19/11/16 49/12/16 44/13/16
f 44/10/18 49/11/18 50/12/18 45/13/18
f 45/10/19 50/11/19 51/12/19 46/13/19
f 46/10/20 51/11/20 52/12/20 47/13/20
f 47/10/21 52/11/21 53/12/21 48/13/21
f 19/10/17 8/11/17 18/12/17 49/13/17
f 49/10/19 18/11/19 17/12/19 50/13/19
f 50/10/22 17/11/22 16/12/22 51/13/22
f 51/10/22 16/11/22 15/12/22 52/13/22
f 52/10/20 15/11/20 14/12/20 53/13/20
